<svg id="wave" style="transform:rotate(0deg); transition: 0.3s" viewBox="0 0 1440 320" version="1.1" xmlns="http://www.w3.org/2000/svg"><defs><linearGradient id="sw-gradient-0" x1="0" x2="0" y1="1" y2="0"><stop stop-color="rgba(218.927, 61.873, 205.82, 1)" offset="0%"></stop><stop stop-color="rgba(3.501, 30.657, 202.99, 1)" offset="100%"></stop></linearGradient></defs><path style="transform:translate(0, 0px); opacity:1" fill="url(#sw-gradient-0)" d="M0,256L24,213.3C48,171,96,85,144,90.7C192,96,240,192,288,197.3C336,203,384,117,432,112C480,107,528,181,576,224C624,267,672,277,720,234.7C768,192,816,96,864,48C912,0,960,0,1008,10.7C1056,21,1104,43,1152,90.7C1200,139,1248,213,1296,240C1344,267,1392,245,1440,229.3C1488,213,1536,203,1584,213.3C1632,224,1680,256,1728,224C1776,192,1824,96,1872,74.7C1920,53,1968,107,2016,144C2064,181,2112,203,2160,208C2208,213,2256,203,2304,181.3C2352,160,2400,128,2448,144C2496,160,2544,224,2592,234.7C2640,245,2688,203,2736,165.3C2784,128,2832,96,2880,80C2928,64,2976,64,3024,101.3C3072,139,3120,213,3168,245.3C3216,277,3264,267,3312,250.7C3360,235,3408,213,3432,202.7L3456,192L3456,320L3432,320C3408,320,3360,320,3312,320C3264,320,3216,320,3168,320C3120,320,3072,320,3024,320C2976,320,2928,320,2880,320C2832,320,2784,320,2736,320C2688,320,2640,320,2592,320C2544,320,2496,320,2448,320C2400,320,2352,320,2304,320C2256,320,2208,320,2160,320C2112,320,2064,320,2016,320C1968,320,1920,320,1872,320C1824,320,1776,320,1728,320C1680,320,1632,320,1584,320C1536,320,1488,320,1440,320C1392,320,1344,320,1296,320C1248,320,1200,320,1152,320C1104,320,1056,320,1008,320C960,320,912,320,864,320C816,320,768,320,720,320C672,320,624,320,576,320C528,320,480,320,432,320C384,320,336,320,288,320C240,320,192,320,144,320C96,320,48,320,24,320L0,320Z"></path></svg>